<svg xmlns="http://www.w3.org/2000/svg" viewBox="0 0 96 96" fill="none">
  <ellipse cx="48" cy="85" rx="36" ry="4" fill="#FBE5EB"/>
  <g stroke="#80574B" stroke-width="2.5" stroke-linecap="round" stroke-linejoin="round">
    <path d="m28 58-5-35" stroke="#D77592" stroke-width="5"/>
    <path d="m20 12 7-1 3 17-7 1Z" fill="#F9C4D3"/>
    <path d="m22 17 5-1m-4 6 5-1"/>
    <path d="m62 58 5-35" stroke="#77A8B6" stroke-width="5"/>
    <path d="m64 10 7 1-3 17-7-1Z" fill="#C5E2E9"/>
    <path d="m64 16 5 1m-6 4 5 1"/>
    <path d="M13 43h30l-3 37H17Z" fill="#FFE6EF"/>
    <path d="M53 43h30l-3 37H57Z" fill="#E2F0F1"/>
    <path d="M13 43h30M53 43h30"/>
  </g>
  <path d="M28 58c-7-6-12 4 0 11 12-7 7-17 0-11Z" fill="#CC6482"/>
  <path d="M68 58c-7-6-12 4 0 11 12-7 7-17 0-11Z" fill="#79A5B2"/>
  <path d="M47 21c-7-5-10 3 0 9 10-6 7-14 0-9Z" fill="#E79BB2"/>
</svg>
